<svg width="100" height="120" viewBox="0 0 100 120" xmlns="http://www.w3.org/2000/svg">
  <!-- Radiating lines -->
  <g stroke="white" stroke-width="2" stroke-linecap="round">
    <!-- Top rays -->
    <line x1="50" y1="10" x2="50" y2="1" />
    <line x1="46" y1="11" x2="44" y2="3" />
    <line x1="54" y1="11" x2="56" y2="3" />
    <line x1="42" y1="13" x2="38" y2="6" />
    <line x1="58" y1="13" x2="62" y2="6" />
    <line x1="38" y1="16" x2="32" y2="10" />
    <line x1="62" y1="16" x2="68" y2="10" />
    <line x1="35" y1="20" x2="27" y2="15" />
    <line x1="65" y1="20" x2="73" y2="15" />
    <line x1="32" y1="24" x2="22" y2="21" />
    <line x1="68" y1="24" x2="78" y2="21" />
    <line x1="30" y1="28" x2="18" y2="27" />
    <line x1="70" y1="28" x2="82" y2="27" />
    <line x1="28" y1="32" x2="15" y2="33" />
    <line x1="72" y1="32" x2="85" y2="33" />
    <line x1="27" y1="36" x2="13" y2="39" />
    <line x1="73" y1="36" x2="87" y2="39" />
    <line x1="26" y1="40" x2="12" y2="45" />
    <line x1="74" y1="40" x2="88" y2="45" />
    
    <!-- Side rays -->
    <line x1="25" y1="44" x2="10" y2="50" />
    <line x1="75" y1="44" x2="90" y2="50" />
    <line x1="24" y1="48" x2="9" y2="55" />
    <line x1="76" y1="48" x2="91" y2="55" />
    
    <!-- Small dots -->
    <circle cx="23" cy="52" r="1" fill="white" />
    <circle cx="77" cy="52" r="1" fill="white" />
    <circle cx="22" cy="56" r="1" fill="white" />
    <circle cx="78" cy="56" r="1" fill="white" />
  </g>
  
  <!-- Triangle -->
  <path d="M 50 15 L 25 55 L 75 55 Z" fill="none" stroke="white" stroke-width="3"/>
  <path d="M 50 20 L 30 50 L 70 50 Z" fill="none" stroke="white" stroke-width="2"/>
  
  <!-- Eye -->
  <ellipse cx="50" cy="35" rx="12" ry="8" fill="none" stroke="white" stroke-width="2"/>
  <circle cx="50" cy="35" r="4" fill="white"/>
  <circle cx="50" cy="35" r="2" fill="black"/>
  
  <!-- Football -->
  <ellipse cx="50" cy="80" rx="18" ry="12" fill="none" stroke="white" stroke-width="3"/>
  <ellipse cx="50" cy="80" rx="15" ry="10" fill="none" stroke="white" stroke-width="2"/>
  
  <!-- Football laces -->
  <line x1="50" y1="72" x2="50" y2="88" stroke="white" stroke-width="2"/>
  <line x1="47" y1="75" x2="53" y2="75" stroke="white" stroke-width="1.5"/>
  <line x1="47" y1="78" x2="53" y2="78" stroke="white" stroke-width="1.5"/>
  <line x1="47" y1="81" x2="53" y2="81" stroke="white" stroke-width="1.5"/>
  <line x1="47" y1="84" x2="53" y2="84" stroke="white" stroke-width="1.5"/>
  <line x1="47" y1="87" x2="53" y2="87" stroke="white" stroke-width="1.5"/>
  
  <!-- Football goal post -->
  <line x1="50" y1="92" x2="50" y2="100" stroke="white" stroke-width="2"/>
  <line x1="45" y1="100" x2="55" y2="100" stroke="white" stroke-width="2"/>
</svg>
